<svg version="1.1" xmlns="http://www.w3.org/2000/svg" xmlns:xlink="http://www.w3.org/1999/xlink" x="0px"
	 y="0px" viewBox="0 0 172 143" style="enable-background:new 0 0 172 143;" xml:space="preserve">
<style type="text/css">
	.st0{clip-path:url(#SVGID_2_);}
	.st1{fill:#7EC4ED;}
	.st2{fill:#00529F;}
</style>
<g>
	<defs>
		<rect id="SVGID_1_" width="172" height="142.7"/>
	</defs>
	<clipPath id="SVGID_2_">
		<use xlink:href="#SVGID_1_"  style="overflow:visible;"/>
	</clipPath>
	<g class="st0">
		<path class="st1" d="M23,24c23.4-19.7,57.6-19.7,81,0c-7-4-15-4-21,0s-9,17-3,26c-10.1-6.3-22.9-6.3-33,0c6-9,5-20-3-26
			S30,19,23,24"/>
		<path class="st1" d="M0,72c0.1-14.7,5.4-28.9,15-40c-6,9-4,20,3,26s13,5,20,1c-9.6,14.1-6,33.3,8,43c-1.8,2-4.3,3.1-7,3
			c-4,0-6-1-7-3h-2c-2,2-4,3-7,3s-5-1-6-3h-1l-4,2c-1,0-3,1-4,0C2.8,94.1,0,83.2,0,72"/>
		<path class="st1" d="M118,104c-1,1-4,1-4,0l-4-2h-1c-1,2-4,3-6,3s-5-1-7-3h-1c-1,2-3,3-7,3c-2.7,0.1-5.2-1-7-3
			c14-9.7,17.6-28.9,8-43c7,3,14,3,20-1s9-17,3-26c9.6,11.1,14.9,25.3,15,40c0,11.2-2.8,22.1-8,32"/>
		<path class="st2" d="M161,87v-2h6l3-2c-3,1-5-3-8-4h-3v7c0,4-3,14-5,19V91h1v-5h-1c0,0-2-4-4-18l0,0v-2h6l3-2c-3,1-5-3-8-4h-3v8
			l0,0c-2,15-4,18-4,18h-1v4h1v5h-4V84l2-3v-9h3c-2-4.1-3.4-8.5-4-13h-1c-1,8-4,11-4,11V59l2-3v-2h-2v-6h2c-4-6-8-35-8-38V8h2
			c3,0,5,4,9,1s-3-1-5-3s3,0,4-3h-4l-4-2h-3v9c0,3-4,32-8,38h2v5h-2v26l-3-14h-10l-4,20c-1.2-4.3-2.2-8.6-3-13h-2
			c-1,6.6-3.1,13-6,19h1v3l2,3v4h-3c0,0-7-12-7-16h6l3-2c-3,1-5-3-8-4h-3v7c0,3-5,14-7,17h4v9h-5v7c0,0,2,0,2,2s-5,23-5,23h98
			c-4-11-5-22-4-24c0-1.1,0.9-2,2-2v-7h-5v-3h3c-3-4-7-17-7-20"/>
	</g>
</g>
</svg>
