<svg version="1.1" xmlns="http://www.w3.org/2000/svg" xmlns:xlink="http://www.w3.org/1999/xlink" x="0px"
	 y="0px" viewBox="0 0 90 51.4" style="enable-background:new 0 0 90 51.4;" xml:space="preserve">
<style type="text/css">
	.st0{fill:#12a0a0;}
</style>
<path id="logo_tds.svg" class="st0" d="M78.5,7.7c6.1,7.2,6.8,17.5,1.8,25.4c-1,0-2-0.4-2.6-1.3c-0.6,0.8-1.5,1.3-2.5,1.3
	c-1,0-1.9-0.5-2.5-1.3c-0.6,0.8-1.6,1.3-2.6,1.3c-0.9,0-1.8-0.4-2.4-1.1c4.9-3.2,6.3-9.8,3.1-14.6c-0.1-0.1-0.2-0.2-0.2-0.3
	c2.2,1.2,4.8,1.1,6.8-0.4C80,14.6,80.4,10.7,78.5,7.7L78.5,7.7L78.5,7.7z M48,5c8-6.6,19.7-6.6,27.7,0c-2.2-1.5-5.1-1.4-7.3,0.1
	c-2.6,2-3,5.9-1,8.9c-3.4-2.1-7.8-2.1-11.2,0c2-3.1,1.6-6.9-1-8.9C53.1,3.6,50.2,3.5,48,5L48,5L48,5z M40.2,21.6
	c0-5.1,1.8-10,5.1-13.9c-1.9,3.1-1.5,6.9,1,8.9c2,1.5,4.7,1.6,6.8,0.4c-3.4,4.8-2.3,11.4,2.5,14.7c0.1,0.1,0.2,0.2,0.4,0.2
	c-0.6,0.7-1.4,1.2-2.4,1.1c-1,0-2-0.5-2.6-1.3c-0.6,0.8-1.5,1.3-2.5,1.3c-1,0-1.9-0.4-2.5-1.3c-0.6,0.8-1.5,1.3-2.6,1.3
	C41.3,29.6,40.2,25.6,40.2,21.6L40.2,21.6L40.2,21.6z M25,38.6c0-0.5-0.2-1.1-0.5-1.5c-0.3-0.2-0.6-0.1-0.7,0.5
	c-0.1,0.3-0.1,0.6-0.1,0.9c-0.2,1.1-0.2,2.2-0.2,3.4c0,0.8,0.1,1.9,0.1,2.3c0.1,0.7,1.7,0.9,1.6-0.1c0-0.3,0-1.1,0-2.2l0,0
	C25.1,40.7,25.1,39.4,25,38.6L25,38.6z M21.8,41.8c-0.5,0.8-1.2,1.5-2,2c-1.4,0.8-3,1.3-4.7,1.4l0,0c-1.6,0.1-3.1,0-4.6-0.5
	c0,0.2-0.1,0.3-0.1,0.5l0,0c0,0.2,0,0.3-0.1,0.5c-0.1,0.1-0.2,0.2-0.3,0.2c-0.2,0.1-0.5,0.1-0.8,0c-0.3-0.1-0.5-0.4-0.6-0.7
	c-0.1-0.4-0.2-0.8-0.2-1.2c-1.2-0.6-2.2-1.4-3.2-2.2c-0.6-0.5-1.1-1-1.6-1.6c-0.5-0.5-0.5-1.2,0-1.7c0.2-0.2,0.4-0.4,0.6-0.5
	c1.4-0.7,2.9-1.2,4.5-1.4c0-1.2,0.2-2.5,0.5-3.7c0.2-0.5,0.6-0.3,0.8,0c0.3,0.4,0.4,0.9,0.4,1.4c0.1,0.6,0.1,2,0.1,2
	c2.3,0,4.3,0.2,5.8,1.2c0.4,0.2,0.7,0.5,0.9,0.9c0.2,0.3,0.2,0.7,0.1,1c-0.2,0.7-0.9,1.1-1.6,1.1c-0.8,0-1-0.3-0.8-0.4
	c0.3-0.1,0.6-0.3,0.8-0.5c0.2-0.2,0.1-0.5-0.1-0.7c0,0-0.1-0.1-0.1-0.1c-0.5-0.2-1.1-0.4-1.7-0.5c-1.1-0.2-2.1-0.3-3.2-0.4v0.4v3.4
	v1.4c1.3,0.6,4.1,0.5,6.2,0c0.9-0.3,1.8-0.8,2.6-1.4c1-0.8,1.4-2.1,1.1-3.4c-0.4-2.2-2.6-4.5-4.6-5.6c-3.9-2.4-9.2-4.6-14.7-3.4
	c-0.3,0.1-0.3,0.2-0.1,0.3c0.3,0,1,0.1,0.9,0.5c-0.1,0.3-1.3,0.2-1.6,0C0,30-0.1,29.6,0,29.4c0.3-0.8,1.6-1.4,3.5-1.5
	c5.6-0.2,11,1.6,15.3,5.1c1.2,1,3.2,3.2,3.6,5.6c0.1,0.6,0.1,1.2,0,1.8C22.3,40.8,22.1,41.4,21.8,41.8L21.8,41.8z M8.4,41.8l0.2-3.4
	l0-0.2c-0.8,0-1.7,0.1-2.5,0.2c-0.6,0.1-1.2,0.2-1.8,0.5c-0.4,0.2-0.6,0.5-0.3,0.8c0.8,0.9,1.7,1.6,2.8,2.1c0.5,0.3,1.1,0.6,1.6,0.8
	L8.4,41.8L8.4,41.8L8.4,41.8z M25,35.7c-0.6,0.1-1.2,0-1.8-0.2c-0.1,0.1-0.1,0.6-0.5,0.6c-0.3,0.1-0.7-0.3-0.6-1.3
	c-0.6-0.5-0.8-1.4-0.4-2.1c0.8-1.5,2.3-2.5,3.9-2.7c1.1-0.1,1.7,0.1,1.9,0.8c0.1,0,1.5,0,1.6,0.9C29.6,33.7,26.6,35.5,25,35.7
	L25,35.7z M25.1,31.5c-0.9,0-1.7,0.4-2.3,1.1c-0.3,0.3-0.4,0.8-0.1,1.1C23.4,32.9,24.2,32.1,25.1,31.5L25.1,31.5z M27.5,31.8
	c-1.4,0.1-2.6,1.3-3.5,2.6c0.8,0.2,1.5,0.1,2.2-0.2c0.7-0.2,1.3-0.7,1.8-1.3C28.2,32.5,28.4,31.8,27.5,31.8L27.5,31.8z M31.4,38.5
	c0.5,0,1-0.1,1.6-0.1c0.7-0.1,1.1-0.8,0.3-1.1c-2.1-0.6-6.2-0.4-7.2,1.2C26,38.6,26,38.8,25.9,39c0,0.4-0.3,1.3,1.4,1.5
	c0.8,0.2,3.6-0.1,5,1c0.1,0.1,0.2,0.2,0.2,0.4c0,0.1-0.1,0.2-0.2,0.3c-1.4,0.8-3,1.1-4.6,0.8c-0.5-0.1-0.8-0.3-0.7-0.7
	c0-0.2,0.1-0.3,0.3-0.4l0,0c0.1-0.1,0.3-0.1,0.4,0c0.1,0,0.2,0,0.3,0.1c0.8,0.2,2.4,1,3.4,0.1c0,0,0.1-0.1,0.1-0.1l0,0
	c0.1-0.3-0.7-0.5-1.6-0.7c-0.3-0.1-2.2-0.5-3.1,0.3c-0.1,0.1-0.2,0.2-0.3,0.4c-0.2,0.5-0.1,1.2,0.4,1.5c1.9,2,5.1,1,5.9,0.5
	c0.6-0.4,0.9-1,0.9-1.7c0-0.1,0-0.2,0-0.3c0-0.7-0.4-1.4-1-1.7c-1.3-0.6-3.3-0.4-5.1-0.7c-0.3-0.1-0.5-0.3,0.1-0.5
	C28.8,38.7,30.1,38.5,31.4,38.5L31.4,38.5z M41.5,41.8c0.1-0.2,0.2-0.4,0.2-0.7c0-0.2-0.1-0.5-0.2-0.7c-0.1-0.3,0.5-0.3,0.7-0.4
	c0.2-0.4,0.4-0.9,0.6-1.3c-0.2-0.1-0.5-0.1-0.7-0.2c-0.4-0.1-1-0.6-0.4-0.9c1.7-0.4,3.4-0.6,5.1-0.5c0.4,0.2,0.8,0.6,1,1.1
	c0,0.1,0,0.2-0.1,0.3c-0.1,0.1-0.2,0.2-0.4,0.2c-1,0.2-2,0.2-3.1,0.2c-0.1,0.3-0.3,0.7-0.4,1.1c0,0-0.1,0.1,0.2,0.1
	c0.7,0,1.5,0,2.2,0.1c0.2,0.3,0.3,0.7,0.1,1c-0.9,0.1-1.9,0.2-2.8,0.2c-0.1,0.2-0.2,0.4-0.2,0.5l0,0c-0.1,0.3-0.2,0.7-0.4,1
	c0,0.1,0.1,0.1,0.1,0.1c1.1-0.1,3.1-0.7,3.3-0.4s0.5,0.8,0.3,1c-0.9,0.8-2,1.3-3.1,1.6C42,45.3,40.4,44.2,41.5,41.8L41.5,41.8z
	 M51,43.1c0.2-0.4,0.4-0.8,0.7-1.2c0.6-1,1.3-1.9,2.2-2.7c0.4-0.2,0.5,1,0.3,1.6c-0.1,0.4-0.4,0.8-0.7,1.1
	C52.8,42.5,51.9,43,51,43.1L51,43.1z M49.3,41.9L49.1,42c0-0.1-0.1-0.1-0.1-0.2l0,0c-0.4-1,0.7-2.3,1.3-3.4c0.1-0.2,0.2-0.4,0.3-0.6
	c0.2-0.6,0.4-1.5-0.6-0.6c-1.3,1.2-2,2.8-2.2,4.6c0,0.5,0.1,1.1,0.4,1.5c-0.6,1.7-1.1,3.4-1.5,5.1c-0.2,0.6-0.2,1.3,0,1.9
	c0.2,0.5,1.5,1.6,1.6,0.7c0.3-2,0.8-4,1.6-5.9l0,0c0-0.1,0.1-0.1,0.1-0.2c0.7,0,1.5-0.1,2.2-0.3c1.3-0.5,2.4-1.5,2.9-2.8
	c0.5-1.1,0.5-2.3,0-3.4c-0.2-0.6-0.9-1-1.5-0.7c-0.1,0-0.1,0-0.2,0.1c-0.3,0.2-0.7,0.4-1,0.7C51.1,39.5,50.1,40.6,49.3,41.9
	 M35.5,44.1c0,0.3-0.3,0.5-0.6,0.5c-0.4,0-0.8-0.4-0.8-0.9c-0.1-0.6-0.1-1.3,0-1.9c0.1-1.1,0.3-2.3,0.7-3.4c0.1-0.2,0.2-0.5,0.3-0.7
	c0.1-0.2,0.4-0.3,0.6-0.2c0,0,0.1,0,0.1,0c0.3,0.3,0.5,0.6,0.7,0.9c0.8,1,1.4,2.2,2.2,3.3c0.3,0.4,0.3,0.1,0.3-0.1
	c-0.1-1.9-0.5-3.7-1-5.5C38,36,38,35.7,38.4,35.8c0.9,0.6,1.6,1.6,1.9,2.7c0.4,1.1,0.5,2.2,0.5,3.4c-0.1,1.2-1.1,3.4-2.6,1.7
	c-0.4-0.5-0.8-1.1-1.1-1.7c-0.3-0.6-0.7-1.4-1-1.8c-0.1-0.1-0.2-0.1-0.2,0.1C35.7,40.3,35.5,43.3,35.5,44.1L35.5,44.1z M62.5,38.5
	c-2.3-0.5-2.8-0.8-2.8-1.7c0-1,0.9-1.8,1.9-1.8c0.1,0,0.1,0,0.2,0c1.5,0.1,2.8,1.2,3,2.7l0.2,0.1l0.8-2.6c-1.3-0.4-2.6-0.6-3.9-0.6
	c-1.9,0-4.7,0.6-4.7,3c0,2.1,1.4,2.6,3.3,2.9c2.7,0.5,3.3,0.8,3.3,2c0,1.5-1.4,2-2.6,2c-1.8-0.1-3.2-1.5-3.5-3.2l-0.2-0.1L56.7,44
	c1.5,0.7,3.1,1,4.8,1c2.1,0,4.8-1,4.8-3.5C66.4,39.5,64.8,39,62.5,38.5L62.5,38.5z M75.7,41.7c-0.9,1.2-2.5,2.5-4.1,2.5
	c-1.3,0-1.6-0.5-1.6-1.8v-1.9h0.8c1.3,0,2.5,0.4,2.7,1.4h0.2v-3.2h-0.2c-0.4,1.2-1.6,1.4-2.7,1.4H70v-3.3h1.2c1.4,0,2.7,0.7,3.6,1.8
	h0.3l-0.6-2.3c-1.2,0-2.6,0-5.6,0c-0.6,0-1.2,0-1.9,0v0.2c0.6,0.1,0.8,0.6,0.8,1.4v4.2c0,1.2-0.1,2.2-1.1,2.2v0.3c0.8,0,1.5,0,2.2,0
	c2.5,0,4.3,0,6.1,0l0.9-2.9L75.7,41.7z M84.9,42.9l-3.4-6.3c-0.1-0.2-0.2-0.4-0.4-0.5c0,0,0,0,0,0c-0.5,0-0.9,0-1.3,0
	c-0.7,0-1.4,0-2.2,0v0.2c1,0.3,1.8,0.9,2.4,1.8l-2.3,4.3c-0.4,0.9-1,1.6-1.9,2v0.2c0.5,0,1.1,0,1.6,0s1.1,0,1.6,0v-0.3
	c-0.6,0-1-0.5-1-1c0,0,0,0,0,0c0-0.4,0.1-0.7,0.3-1l0.5-1h2.7l0.6,1.2c0.2,0.4,0.4,0.8,0.4,1.2c0,0.5-0.3,0.5-0.7,0.6v0.3
	c0.7,0,1.5,0,2.1,0s1.5,0,2.2,0v-0.3C85.8,44.3,85.5,44,84.9,42.9L84.9,42.9z M79,40.9l1.2-2.3l1.2,2.3H79L79,40.9z M34.4,26.2
	c0-1.1,0.4-1.6,1-1.6s1,0.5,1,1.6s-0.4,1.6-1,1.6S34.4,27.4,34.4,26.2L34.4,26.2z M33.4,26.2c-0.1,1.1,0.7,2.1,1.8,2.2
	c1.1,0.1,2.1-0.7,2.2-1.8c0.1-1.1-0.7-2.1-1.8-2.2c-0.1,0-0.1,0-0.2,0c-1-0.1-1.9,0.6-2,1.7C33.4,26.2,33.4,26.2,33.4,26.2
	L33.4,26.2z M31.2,25.4c-0.1-0.2-0.2-0.3-0.3-0.5c0-0.2,0.2-0.3,0.3-0.2v-0.1c-0.3,0-0.7,0-0.9,0s-0.6,0-0.9,0v0.1
	c0.3,0.2,0.6,0.5,0.8,0.8l0.7,1.1v0.5c0,0.5,0,0.9-0.4,0.9v0.1c0.3,0,0.6,0,0.9,0s0.6,0,0.9,0v-0.1c-0.4,0-0.4-0.5-0.4-0.9v-0.5
	l0.7-1c0.2-0.3,0.6-0.6,0.9-0.8v-0.1c-0.2,0-0.5,0-0.7,0s-0.5,0-0.7,0v0.1c0.2,0,0.3,0.1,0.4,0.3c0,0.2-0.1,0.4-0.3,0.6l-0.4,0.6
	L31.2,25.4L31.2,25.4L31.2,25.4z M25.7,26.9c0,0.5,0,0.9-0.4,0.9v0.1l1.7,0v-0.1c-0.3,0-0.4-0.3-0.4-0.9v-0.4c0-0.2,0.1-0.3,0.2-0.3
	c0.3,0.1,0.4,0.3,0.5,0.6l0.5,1.1c0,0,0,0,0.1,0h1.3v0c-0.3-0.3-0.6-0.6-0.8-1c-0.2-0.6-0.8-0.9-1.4-0.8l1-0.8
	c0.3-0.3,0.7-0.5,1.1-0.6v-0.1c-0.2,0-0.5,0-0.7,0s-0.5,0-0.7,0v0.1c0.1,0,0.3,0.1,0.3,0.2c0,0,0,0,0,0c0,0.2-0.1,0.3-0.3,0.4
	L26.6,26v-0.9c0-0.5,0.1-0.5,0.3-0.6v-0.1c-0.3,0-0.5,0-0.8,0s-0.5,0-0.7,0v0.1c0.2,0,0.3,0.1,0.3,0.6L25.7,26.9L25.7,26.9
	L25.7,26.9z M22,26.2c0-1.1,0.4-1.6,1-1.6s1,0.5,1,1.6s-0.4,1.6-1,1.6S22,27.3,22,26.2L22,26.2z M21,26.2c-0.1,1.1,0.7,2.1,1.8,2.3
	c1.1,0.1,2.1-0.7,2.3-1.8c0.1-1.1-0.7-2.1-1.8-2.3c-0.1,0-0.2,0-0.2,0c-1-0.1-1.9,0.7-2,1.7C21,26.1,21,26.1,21,26.2L21,26.2z
	 M16.9,25.4c0.3-0.4,0.6-0.6,1.1-0.8c0.2,0,0.3,0.1,0.3,0.3c0,0,0,0.1,0,0.1l0,1.9c0,0.5,0,0.9-0.5,0.9v0.1c0.4,0,0.7,0,1,0
	s0.6,0,0.9,0v-0.1c-0.4,0-0.4-0.5-0.4-0.9l0-1.9c0-0.2,0.1-0.3,0.2-0.3c0,0,0,0,0.1,0c0.4,0.1,0.8,0.4,1.1,0.8h0.1l-0.3-1l-3.4,0
	l-0.3,1H16.9L16.9,25.4z M88.9,43.2c0.2-0.1,0.3-0.3,0.2-0.5c0-0.3-0.2-0.5-0.5-0.5c0,0-0.1,0-0.1,0h-0.8V44H88v-0.8h0.6
	c0.4,0,0.3,0.3,0.3,0.5c0,0.1,0,0.1,0.1,0.2h0.3V44c-0.1-0.1-0.1-0.2-0.1-0.4C89.2,43.4,89.1,43.2,88.9,43.2L88.9,43.2z M88.6,43.1
	H88v-0.6h0.6c0.2,0,0.3,0.1,0.3,0.2c0,0,0,0.1,0,0.1C88.9,42.9,88.8,43.1,88.6,43.1C88.6,43.1,88.6,43.1,88.6,43.1L88.6,43.1z
	 M88.4,41.6c-0.9,0-1.5,0.7-1.5,1.6s0.7,1.5,1.6,1.5c0.9,0,1.5-0.7,1.5-1.6C90,42.3,89.3,41.6,88.4,41.6
	C88.4,41.6,88.4,41.6,88.4,41.6L88.4,41.6z M88.4,44.5c-0.8,0-1.4-0.6-1.4-1.4s0.6-1.4,1.4-1.4c0.8,0,1.4,0.6,1.4,1.4
	C89.8,43.9,89.2,44.5,88.4,44.5C88.4,44.5,88.4,44.5,88.4,44.5L88.4,44.5z"/>
</svg>
